<?xml version="1.0" standalone="no"?>
<!DOCTYPE svg PUBLIC "-//W3C//DTD SVG 20010904//EN"
 "http://www.w3.org/TR/2001/REC-SVG-20010904/DTD/svg10.dtd">
<svg version="1.0" xmlns="http://www.w3.org/2000/svg"
 width="500.000000pt" height="500.000000pt" viewBox="0 0 500.000000 500.000000"
 preserveAspectRatio="xMidYMid meet">

<g transform="translate(0.000000,500.000000) scale(0.100000,-0.100000)"
fill="#000000" stroke="none">
<path d="M2310 4394 c-171 -36 -337 -121 -469 -240 -109 -98 -219 -271 -253
-399 l-13 -50 -6 55 c-3 30 -6 -83 -7 -252 -2 -302 -2 -308 -22 -308 -17 0
-19 -4 -14 -27 10 -39 63 -173 82 -205 15 -25 12 -38 -53 -277 -37 -138 -66
-253 -64 -255 2 -3 114 24 249 60 135 35 252 64 261 64 9 0 45 -13 80 -30 94
-44 210 -71 332 -77 l107 -6 0 25 c0 62 93 138 170 138 67 -1 160 -64 160
-109 0 -22 38 -10 127 42 264 151 396 317 443 554 11 56 23 110 27 118 4 13 0
16 -23 13 l-29 -3 -3 305 c-1 183 -6 308 -12 314 -7 7 -10 -7 -11 -40 l0 -49
-19 53 c-105 295 -380 526 -699 586 -101 19 -253 19 -341 0z m380 -165 c247
-62 470 -261 560 -501 51 -137 65 -332 34 -470 -73 -322 -333 -571 -662 -634
-179 -34 -405 5 -547 94 l-40 26 -158 -41 c-133 -35 -157 -38 -153 -25 3 10
21 78 42 153 l36 136 -26 42 c-38 60 -85 181 -103 265 -24 113 -14 309 21 411
44 129 101 219 201 321 134 136 290 217 470 244 81 12 233 2 325 -21z"/>
<path d="M2100 3961 c-81 -26 -157 -88 -193 -156 -13 -27 -22 -66 -25 -118 -4
-71 -2 -82 27 -142 91 -184 332 -224 478 -78 180 180 61 483 -195 498 -37 3
-78 1 -92 -4z m180 -52 c95 -43 153 -131 153 -234 0 -277 -367 -359 -495 -111
-26 50 -29 153 -6 207 57 131 220 196 348 138z"/>
<path d="M2220 3777 c-14 -7 -33 -29 -44 -51 -37 -75 15 -156 100 -156 108 0
153 133 66 200 -28 23 -84 26 -122 7z m133 -49 c7 -21 -4 -38 -23 -38 -23 0
-34 16 -26 35 7 18 43 20 49 3z"/>
<path d="M2750 3957 c-142 -40 -227 -159 -218 -305 5 -80 28 -132 83 -188 63
-63 117 -84 211 -84 96 0 161 27 219 92 56 61 75 111 75 199 0 61 -5 85 -26
126 -62 126 -214 197 -344 160z m207 -63 c91 -56 143 -161 129 -258 -4 -24
-21 -67 -39 -97 -122 -203 -421 -152 -477 82 -28 116 47 248 167 294 62 24
163 14 220 -21z"/>
<path d="M2874 3774 c-88 -43 -74 -169 22 -203 35 -12 44 -12 75 3 85 40 91
159 9 201 -37 19 -66 19 -106 -1z m130 -51 c4 -9 1 -23 -7 -30 -7 -8 -21 -11
-30 -7 -17 6 -23 35 -10 47 12 13 41 7 47 -10z"/>
<path d="M3060 3390 c0 -55 -268 -132 -565 -161 -155 -15 -410 -6 -530 20 -50
10 -94 15 -99 10 -14 -12 37 -28 134 -43 51 -8 106 -24 137 -39 82 -42 312
-171 385 -215 148 -91 172 -97 224 -57 77 58 334 385 334 424 0 8 6 11 15 7 8
-3 22 -9 30 -12 10 -4 15 0 15 10 0 9 -7 16 -15 16 -9 0 -24 13 -33 30 -20 35
-32 39 -32 10z m-10 -71 c0 -28 -60 -67 -150 -97 -126 -42 -245 -61 -415 -69
-164 -7 -261 1 -292 25 -22 16 -16 17 125 18 243 3 544 53 673 112 52 24 59
25 59 11z m-250 -319 c-48 -57 -90 -90 -116 -90 -9 0 -37 12 -61 26 l-44 25
23 18 c54 42 130 69 196 70 l44 1 -42 -50z"/>
<path d="M864 3018 c-17 -13 -146 -126 -287 -251 -293 -261 -273 -224 -179
-340 61 -77 59 -77 157 -33 l60 27 -59 -60 -59 -60 26 -38 c15 -21 46 -59 69
-85 l43 -47 313 148 c171 82 312 146 312 143 0 -3 -86 -120 -192 -261 -106
-141 -192 -265 -192 -276 -1 -14 24 -37 86 -78 48 -32 92 -56 98 -52 6 4 43
55 82 113 39 59 74 111 78 116 8 8 107 -19 123 -33 4 -4 -31 -60 -79 -125 -47
-64 -84 -125 -82 -133 3 -14 162 -132 180 -133 4 0 50 66 104 148 53 81 153
223 221 316 143 194 142 189 44 249 -107 65 -89 70 -178 -50 -43 -59 -81 -111
-85 -117 -8 -11 -90 27 -110 51 -7 9 10 40 67 114 42 55 78 106 81 113 2 6 -4
21 -15 33 -31 33 -140 95 -156 89 -10 -3 -26 16 -51 64 -20 39 -42 70 -49 70
-7 0 -43 -14 -81 -30 l-67 -31 41 46 c55 58 55 85 1 150 -23 28 -46 53 -53 57
-6 3 -46 -9 -89 -28 -43 -19 -81 -34 -85 -34 -4 0 22 27 58 59 l65 58 -28 39
c-14 22 -44 56 -65 77 l-38 37 -30 -22z"/>
<path d="M3871 2781 c-83 -121 -151 -223 -151 -228 0 -17 163 -153 184 -153 4
0 23 35 43 78 19 42 37 79 39 80 1 2 105 -74 229 -168 125 -95 234 -173 243
-174 9 0 36 28 64 68 52 75 52 93 0 120 -15 8 -36 23 -46 35 -11 12 -24 21
-30 21 -6 1 -38 26 -72 58 -34 31 -109 93 -167 137 -59 44 -107 84 -107 88 0
4 19 36 41 69 32 46 40 65 32 77 -14 23 -125 111 -139 111 -7 0 -81 -99 -163
-219z m529 -497 c0 -9 -36 16 -80 56 l-45 42 63 -47 c34 -25 62 -48 62 -51z"/>
<path d="M3570 2482 c-82 -40 -140 -135 -140 -226 1 -85 58 -238 118 -316 15
-19 40 -54 55 -76 38 -57 147 -141 166 -129 5 3 11 0 13 -6 7 -20 104 -23 151
-5 55 21 115 79 139 134 26 59 27 160 2 233 -52 148 -201 338 -305 387 -57 27
-148 29 -199 4z m135 -184 c61 -48 170 -220 190 -301 9 -35 -17 -77 -48 -77
-52 0 -188 197 -217 313 -20 79 17 111 75 65z m269 -194 c3 -8 2 -12 -4 -9 -6
3 -10 10 -10 16 0 14 7 11 14 -7z"/>
<path d="M3037 2153 c-151 -74 -157 -76 -176 -59 -19 17 -30 17 -283 -4 -168
-14 -266 -26 -271 -33 -4 -7 -6 -45 -3 -86 3 -41 6 -84 6 -95 0 -39 32 -48
105 -30 36 9 69 14 72 10 4 -4 11 -129 16 -279 10 -323 3 -307 126 -299 82 5
105 15 96 42 -3 9 -7 143 -9 297 l-4 281 37 6 c20 3 52 6 71 6 51 0 64 13 63
57 -2 34 0 31 22 -31 14 -38 57 -183 97 -322 56 -199 77 -257 93 -268 19 -13
36 -9 161 38 161 60 223 93 258 139 30 39 47 108 39 162 -9 71 -70 159 -131
191 -1 0 5 20 13 44 52 149 -48 310 -193 310 -41 0 -75 -13 -205 -77z m183
-163 c8 -15 7 -27 -4 -47 -14 -28 -67 -73 -84 -73 -12 0 -25 81 -15 91 7 6 85
49 90 49 1 0 7 -9 13 -20z m90 -301 c0 -19 -65 -99 -80 -99 -9 0 -30 54 -30
76 0 7 19 24 42 38 45 27 68 22 68 -15z"/>
<path d="M1941 2100 c-131 -165 -306 -428 -376 -563 l-30 -58 25 -19 c26 -21
100 -46 160 -56 34 -6 36 -4 65 48 17 29 34 52 38 51 4 -2 39 -3 78 -3 69 0
71 -1 66 -22 -3 -13 -9 -44 -12 -70 -7 -45 -6 -48 26 -67 39 -24 178 -56 190
-44 11 11 49 503 49 631 0 82 -4 103 -23 137 -27 49 -73 73 -154 81 l-60 7
-42 -53z m54 -366 c-7 -47 -10 -49 -50 -34 l-26 10 23 32 c12 18 30 41 38 52
14 17 15 17 18 1 2 -10 1 -37 -3 -61z m106 -291 c-3 -52 -5 -55 -14 -33 -7 14
-15 28 -20 31 -6 4 27 59 36 59 1 0 0 -26 -2 -57z"/>
</g>
</svg>
